<svg width="20" height="20" viewBox="0 0 20 20" fill="none" xmlns="http://www.w3.org/2000/svg">
<path d="M18.1713 8.36824H17.5V8.33366H10V11.667H14.7096C14.0225 13.6074 12.1763 15.0003 10 15.0003C7.23877 15.0003 5.00002 12.7616 5.00002 10.0003C5.00002 7.23908 7.23877 5.00033 10 5.00033C11.2746 5.00033 12.4342 5.48116 13.3171 6.26658L15.6742 3.90949C14.1859 2.52241 12.195 1.66699 10 1.66699C5.39794 1.66699 1.66669 5.39824 1.66669 10.0003C1.66669 14.6024 5.39794 18.3337 10 18.3337C14.6021 18.3337 18.3334 14.6024 18.3334 10.0003C18.3334 9.44158 18.2759 8.89616 18.1713 8.36824Z" fill="#FFC107"/>
<path d="M2.6275 6.12158L5.36542 8.12949C6.10625 6.29533 7.90042 5.00033 10 5.00033C11.2746 5.00033 12.4342 5.48116 13.3171 6.26658L15.6742 3.90949C14.1858 2.52241 12.195 1.66699 10 1.66699C6.79917 1.66699 4.02334 3.47408 2.6275 6.12158Z" fill="#FF3D00"/>
<path d="M9.99999 18.3336C12.1525 18.3336 14.1083 17.5099 15.5871 16.1703L13.0079 13.9878C12.1712 14.6215 11.1312 15.0003 9.99999 15.0003C7.83249 15.0003 5.99207 13.6182 5.29874 11.6895L2.58124 13.7832C3.9604 16.482 6.76124 18.3336 9.99999 18.3336Z" fill="#4CAF50"/>
<path d="M18.1712 8.36759H17.5V8.33301H10V11.6663H14.7096C14.3796 12.5984 13.78 13.4022 13.0067 13.9876L13.0079 13.9868L15.5871 16.1693C15.4046 16.3351 18.3333 14.1663 18.3333 9.99967C18.3333 9.44092 18.2758 8.89551 18.1712 8.36759Z" fill="#1976D2"/>
</svg>
