<svg viewBox="0 0 28 28" fill="none" xmlns="http://www.w3.org/2000/svg"><g clip-path="url(#clip0_184_13488)"><path d="M14 28C21.732 28 28 21.732 28 14C28 6.26801 21.732 0 14 0C6.26801 0 0 6.26801 0 14C0 21.732 6.26801 28 14 28Z" fill="#FF1D1D"/><path fill-rule="evenodd" clip-rule="evenodd" d="M19.2273 21.2994C19.5406 20.5881 19.3162 19.7915 19.1013 19.0283C18.8852 18.2611 18.6787 17.5277 19.0374 16.9485C19.2291 16.639 19.498 16.3164 19.7924 15.9632C20.5965 14.9985 21.5901 13.8064 21.7158 12.0341C21.7791 11.1356 21.6495 10.5549 20.9898 9.56977C18.765 6.24464 11.759 3.59525 8.89323 5.56062C8.42425 5.88202 8.09072 6.13363 7.53778 6.63846C6.4169 7.66138 6.16307 8.7139 6.42604 9.94533C6.43935 10.0075 6.45416 10.0789 6.47078 10.1591C6.78307 11.6653 7.73703 16.2662 11.4801 21.1023C13.7877 23.8409 14.4924 23.6792 15.0808 23.5443C15.1323 23.5325 15.1828 23.5209 15.2335 23.5115C15.8636 23.3942 18.5985 22.7264 19.2274 21.3004L19.2273 21.2994ZM17.8183 20.8148C16.6783 21.7763 15.5601 21.273 13.8044 19.1884C12.0486 17.1038 6.6911 9.41782 9.61597 6.95153C12.5418 4.48504 18.0462 8.0234 19.7612 10.058C21.4758 12.0932 19.4794 14.163 18.3041 15.1536C17.712 15.6526 17.8825 16.8414 18.0517 18.0213C18.2184 19.1834 18.3838 20.3368 17.8181 20.8139L17.8183 20.8148ZM11.1775 14.0367L14.6683 16.0225L18.1399 13.9963L14.6827 18.8006L11.1775 14.0367ZM10.9843 13.0318L14.6895 7.43014L18.3197 12.9892L14.663 15.1254L10.9843 13.0318ZM17.1189 19.9319C17.9302 19.4203 16.9837 16.8721 16.9837 16.8721L16.9835 16.8711L15.2666 19.2815C15.2666 19.2815 16.3076 20.4435 17.1189 19.9319ZM13.9471 7.1567C13.9471 7.1567 10.577 6.57444 9.84873 7.86147C8.96908 9.41643 10.391 12.3435 10.391 12.3435L13.9471 7.1567ZM19.6088 11.2998C19.5645 10.2732 16.2111 8.14783 16.2111 8.14783L18.9787 12.589C18.9787 12.589 19.6531 12.3264 19.6088 11.2998Z" fill="white"/><path opacity="0.2" d="M22.751 22.6925C27.5512 17.8594 27.5255 10.05 22.6925 5.24982C17.8594 0.449587 10.05 0.475231 5.24976 5.30832L22.751 22.6925Z" fill="white"/></g><defs><clipPath id="clip0_184_13488"><rect width="28" height="28" fill="white"/></clipPath></defs></svg>
