<svg width="80" height="80" viewBox="0 0 80 80" fill="none" xmlns="http://www.w3.org/2000/svg">
<path d="M76.6375 48.4733L76.5365 48.5794C76.4892 48.6282 76.4414 48.6766 76.3932 48.7248L48.6874 76.3861C43.861 81.2046 36.036 81.2046 31.2096 76.3861L23.5586 68.7477C23.0162 68.2083 23.015 67.3311 23.555 66.7893C23.7139 66.6299 23.9092 66.5117 24.124 66.4445C32.3246 63.9131 38.9878 60.991 44.1137 57.6782C56.321 49.7887 67.1623 46.7204 76.6375 48.4733ZM70.829 25.7189C81.0581 28.9423 79.8644 36.4674 80 39.4338C68.7975 33.5598 55.3206 35.7128 39.5693 45.8927C27.829 53.4803 17.9947 56.6087 10.0663 55.2777C2.13801 53.9467 0.354553 44.2639 0 41.6909C8.71179 46.0958 20.3868 43.5676 35.0248 34.1073C48.6651 25.2917 60.5999 22.4956 70.829 25.7189ZM48.6874 3.61394L55.8764 10.7904C56.4179 11.3307 56.4186 12.2079 55.8784 12.7495C55.6857 12.9427 55.4402 13.0746 55.1727 13.1285C44.7655 15.2251 36.4424 18.2895 30.2033 22.3218C19.5119 29.2315 10.4012 32.4431 2.87104 31.9567L2.87186 31.9547L31.2096 3.61394C36.036 -1.20465 43.861 -1.20465 48.6874 3.61394Z" fill="url(#paint0_linear_4189_332)"/>
<defs>
<linearGradient id="paint0_linear_4189_332" x1="40" y1="0" x2="40" y2="80" gradientUnits="userSpaceOnUse">
<stop stop-color="#3067EE"/>
<stop offset="1" stop-color="#2143CB"/>
</linearGradient>
</defs>
</svg>
