<svg
    xmlns="http://www.w3.org/2000/svg"
    xmlns:xlink="http://www.w3.org/1999/xlink"
    viewBox="0 0 658 240"
    width="658"
    height="240"
    preserveAspectRatio="xMidYMid meet"
    style="width: 100%; height: 100%; transform: translate3d(0px, 0px, 0px); content-visibility: visible;"
>
    <defs>
        <clipPath id="__lottie_element_2">
            <rect width="658" height="240" x="0" y="0"></rect>
        </clipPath>
        <linearGradient id="shine-gradient" x1="0%" y1="0%" x2="100%" y2="0%">
            <stop offset="0%" stop-color="white" stop-opacity="0" />
            <stop offset="50%" stop-color="white" stop-opacity="1" />
            <stop offset="100%" stop-color="white" stop-opacity="0" />
            <animate attributeName="x1" from="-100%" to="100%" dur="1.5s" repeatCount="indefinite" />
            <animate attributeName="x2" from="0%" to="200%" dur="1.5s" repeatCount="indefinite" />
        </linearGradient>
        <mask id="shine-mask">
            <rect x="-329" y="-128" width="658" height="240" fill="url(#shine-gradient)" />
        </mask>
    </defs>
    <g clip-path="url(#__lottie_element_2)">
        <g
            transform="matrix(1,0,0,1,329,128)"
            opacity="0.7411081801859551"
            style="display: block;"
        >
            <g opacity="1" transform="matrix(1,0,0,1,0,0)">
                <!-- Bottom Axis -->
                <path
                    stroke="#43465f"
                    stroke-opacity="1"
                    stroke-width="2"
                    fill="none"
                    d="M-310,66 L290,66"
                ></path>

                <!-- Right Axis -->
                <path
                    stroke="#43465f"
                    stroke-opacity="1"
                    stroke-width="2"
                    fill="none"
                    d="M290,66 L290,-72"
                ></path>

                <path
                    fill="#2b2d3e"
                    fill-opacity="1"
                    d="M-280,66 C-270,60 -260,50 -230,40 S-190,5 -170,10 S-140,25 -130,30 S-116,55 -106,61 S-70,30 -50,20 S-27,44 -7,49 S10,20 20,15 S46,-5 56,0 S90,20 100,25 S135,45 145,41 S190,10 200,15 S240,30 250,35 S280,62 290,66"
                ></path>
                <path
                    stroke="#43465f"
                    stroke-opacity="1"
                    stroke-width="2"
                    fill="none"
                    d="M-280,66 C-270,60 -260,50 -230,40 S-190,5 -170,10 S-140,25 -130,30 S-116,55 -106,61 S-70,30 -50,20 S-27,44 -7,49 S10,20 20,15 S46,-5 56,0 S90,20 100,25 S135,45 145,41 S190,10 200,15 S240,30 250,35 S280,62 290,66"
                ></path>
                <g mask="url(#shine-mask)">
                    <path
                        fill="#000"
                        fill-opacity="0.3"
                        d="M-280,66 C-270,60 -260,50 -230,40 S-190,5 -170,10 S-140,25 -130,30 S-116,55 -106,61 S-70,30 -50,20 S-27,44 -7,49 S10,20 20,15 S46,-5 56,0 S90,20 100,25 S135,45 145,41 S190,10 200,15 S240,30 250,35 S280,62 290,66"
                    ></path>
                    <path
                        stroke="#000"
                        stroke-opacity="0.5"
                        stroke-width="2"
                        fill="none"
                        d="M-280,66 C-270,60 -260,50 -230,40 S-190,5 -170,10 S-140,25 -130,30 S-116,55 -106,61 S-70,30 -50,20 S-27,44 -7,49 S10,20 20,15 S46,-5 56,0 S90,20 100,25 S135,45 145,41 S190,10 200,15 S240,30 250,35 S280,62 290,66"
                    ></path>
                </g>
            </g>
        </g>
    </g>
</svg>