<svg xmlns="http://www.w3.org/2000/svg" viewBox="0 0 527.31 57.76">
  <defs>
    <style>
      .cls-1 { fill: #009cdd; }
      .cls-2 { fill: #ffa726; }
      .cls-1, .cls-2 { stroke-width: 0px; }
    </style>
  </defs>
  <path class="cls-2" d="m0,44.05V2.98h16.44c1.4,0,2.78.18,4.09.51,1.32.33,2.49.95,3.54,1.83,1.03.9,1.85,2.14,2.45,3.76s.9,3.72.9,6.33c0,2.12-.21,3.88-.66,5.3-.45,1.4-1.03,2.53-1.75,3.37-.72.84-1.52,1.46-2.4,1.89-.88.43-1.73.76-2.59.97l8.2,17.1h-5.69l-7.58-16.32c-.56,0-1.23,0-2.03-.02-.8,0-1.64-.02-2.51-.02s-1.73,0-2.57-.06c-.84-.04-1.58-.06-2.2-.06v16.49H0Zm5.63-20.84h9.91c.9,0,1.71-.1,2.45-.31.74-.19,1.4-.58,1.99-1.17.56-.58,1.03-1.38,1.36-2.4s.51-2.34.51-3.93-.18-2.82-.51-3.78c-.33-.97-.8-1.71-1.4-2.22-.58-.53-1.27-.88-2.01-1.09-.74-.19-1.54-.31-2.4-.31H5.63v15.21Z"/>
  <path class="cls-2" d="m44.96,44.38c-3.15,0-5.67-.47-7.56-1.38s-3.21-2.49-4.01-4.71-1.21-5.26-1.21-9.17.39-7.07,1.21-9.27c.8-2.2,2.12-3.76,3.99-4.65,1.85-.9,4.36-1.34,7.52-1.34,2.75,0,4.97.29,6.66.86,1.69.58,2.94,1.6,3.74,3.06.8,1.46,1.21,3.51,1.21,6.1,0,1.81-.37,3.27-1.09,4.34-.72,1.07-1.75,1.85-3.06,2.34-1.32.49-2.88.72-4.71.72h-9.85c.04,2.16.29,3.88.76,5.16s1.3,2.22,2.51,2.78c1.21.58,2.98.86,5.32.86h9.31v3.35c-1.6.21-3.23.43-4.91.64s-3.6.31-5.8.31l-.02.02Zm-7.24-16.61h9.41c1.48,0,2.59-.27,3.29-.84s1.05-1.58,1.05-3.06-.21-2.65-.64-3.51c-.43-.86-1.13-1.46-2.08-1.83-.97-.37-2.24-.56-3.84-.56-1.81,0-3.25.27-4.32.84s-1.81,1.54-2.22,2.96c-.43,1.4-.64,3.41-.64,6.02v-.02Z"/>
  <path class="cls-2" d="m73.43,44.38c-.78,0-1.71,0-2.78-.06s-2.18-.1-3.31-.19c-1.13-.1-2.18-.19-3.12-.31-.95-.12-1.69-.23-2.26-.39v-3.35h12.54c1.07,0,2.01-.08,2.78-.25.78-.18,1.38-.53,1.81-1.09s.64-1.38.64-2.45v-1.23c0-1.11-.37-1.99-1.11-2.61s-1.97-.95-3.68-.95h-4.34c-1.75,0-3.29-.23-4.65-.7s-2.41-1.25-3.17-2.38c-.76-1.11-1.15-2.61-1.15-4.52v-1.62c0-1.89.37-3.45,1.09-4.67.72-1.23,1.89-2.14,3.49-2.77,1.6-.6,3.72-.92,6.35-.92,1.11,0,2.36.04,3.7.14,1.36.1,2.69.21,3.99.37s2.34.31,3.12.51v3.35h-11.82c-1.64,0-2.88.27-3.76.84s-1.3,1.62-1.3,3.17v1.11c0,.97.19,1.71.6,2.22.41.53.99.86,1.75,1.01.76.16,1.66.21,2.71.21h4.46c2.82,0,4.97.66,6.41,1.99,1.44,1.32,2.18,3.17,2.18,5.55v2.28c0,2.01-.47,3.56-1.4,4.67s-2.22,1.89-3.88,2.34c-1.66.45-3.6.66-5.88.66v.04Z"/>
  <path class="cls-2" d="m100.95,44.05c-2.01,0-3.66-.33-4.99-.97s-2.28-1.69-2.9-3.15c-.6-1.44-.9-3.39-.86-5.8l.21-15.33h-4.73v-3.62l4.85-.95.84-8.35h4.4v8.35h8.08v4.58h-8.08v15.27c0,1.15.12,2.08.33,2.78s.55,1.25.95,1.62c.41.37.86.64,1.34.8.49.18.95.27,1.4.31l3.68.33v4.13h-4.52l-.02.02Z"/>
  <path class="cls-2" d="m117.17,44.38c-2.18,0-4.01-.66-5.43-1.99s-2.14-3.15-2.14-5.49v-2.34c0-2.3.78-4.19,2.38-5.65,1.58-1.46,3.95-2.2,7.17-2.2h9.31v-3.12c0-1.15-.19-2.12-.58-2.92s-1.11-1.4-2.14-1.81-2.59-.6-4.62-.6h-9.13v-3.29c1.34-.29,2.9-.56,4.71-.78,1.79-.21,3.91-.35,6.33-.39,2.45,0,4.5.31,6.15.92,1.66.6,2.88,1.62,3.7,3,.82,1.4,1.23,3.23,1.23,5.55v20.78h-4.4l-.95-3.29c-.21.16-.68.41-1.4.82s-1.62.8-2.71,1.25-2.28.82-3.56,1.11-2.57.45-3.88.45h-.02Zm2.57-4.07c.56.04,1.21,0,1.99-.18.76-.16,1.52-.33,2.28-.53s1.46-.41,2.12-.64c.64-.21,1.19-.41,1.62-.58s.66-.27.7-.31v-8.59l-7.81.33c-1.93.12-3.31.6-4.15,1.44-.84.86-1.25,1.97-1.25,3.35v1.34c0,1.07.21,1.95.66,2.59s1.01,1.11,1.69,1.36c.68.25,1.4.39,2.14.39v.02Z"/>
  <path class="cls-2" d="m141.34,44.05V1.54h5.57v24.13h4.07l8.3-11.41h5.8l-9.97,13.92,10.69,15.87h-5.84l-9.13-13.38h-3.89v13.38h-5.59Z"/>
  <path class="cls-2" d="m170.88,9.23c-.66,0-1.01-.31-1.01-.95V3.61c0-.66.33-.99,1.01-.99h4.13c.29,0,.53.1.66.27.16.19.21.43.21.72v4.67c0,.62-.29.95-.9.95h-4.13.02Zm-.78,34.82V14.24h5.57v29.81h-5.57Z"/>
  <path class="cls-2" d="m183.19,44.05V14.24h4.46l1.11,3.23c1.34-.97,2.92-1.83,4.77-2.59,1.83-.76,3.74-1.15,5.71-1.15,2.22,0,4.01.47,5.37,1.42,1.36.95,2.34,2.2,2.92,3.76s.9,3.25.9,5.06v20.06h-5.57v-19.4c0-1.19-.23-2.22-.7-3.1s-1.11-1.56-1.93-2.03c-.82-.49-1.81-.72-3-.72-1.11,0-2.14.12-3.1.33s-1.85.53-2.71.92-1.75.86-2.67,1.42v22.57h-5.57v.02Z"/>
  <path class="cls-2" d="m223.19,57.76c-1.89,0-3.58-.27-5.04-.8-1.46-.55-2.63-1.36-3.49-2.45s-1.29-2.43-1.29-4.03v-1.23c0-1.67.47-3.08,1.42-4.21s2.14-1.99,3.58-2.59c1.44-.58,2.96-.9,4.52-.9l1.5,2.06c-1.01,0-1.95.16-2.8.47-.88.31-1.58.82-2.12,1.5s-.8,1.58-.8,2.65v1.05c0,1.56.53,2.69,1.58,3.41,1.05.7,2.51,1.05,4.38,1.05h6.52c1.97,0,3.52-.39,4.67-1.15s1.73-1.95,1.73-3.54v-1.05c0-.9-.19-1.67-.58-2.34s-1.01-1.19-1.87-1.54-2.03-.53-3.51-.53h-8.24c-2.63,0-4.63-.55-6.02-1.62s-2.06-2.43-2.06-4.07c0-1.48.43-2.69,1.3-3.6.88-.92,2.1-1.54,3.7-1.87-1.34-.58-2.4-1.36-3.15-2.28-.76-.93-1.29-1.95-1.6-3.04-.29-1.09-.45-2.2-.45-3.31,0-2.26.47-4.11,1.4-5.51s2.28-2.45,4.03-3.12c1.77-.66,3.88-1.01,6.33-1.01h16.05v3.17l-6.08.6c.45.33.93.78,1.44,1.3.53.55.95,1.27,1.34,2.2.37.93.56,2.16.56,3.68,0,1.6-.35,3.08-1.03,4.46s-1.81,2.49-3.35,3.35c-1.54.86-3.64,1.29-6.27,1.29h-4.91c-1.42,0-2.53.21-3.35.6s-1.23,1.13-1.23,2.18c0,.86.31,1.44.95,1.79.62.33,1.3.51,2.01.51h9.41c2.26,0,4.17.29,5.71.9s2.71,1.5,3.49,2.73,1.17,2.82,1.17,4.79v1.05c0,2.82-.92,5.02-2.77,6.6-1.83,1.58-4.62,2.38-8.33,2.38h-8.53.06Zm2.45-27.79h3.29c1.67,0,2.94-.25,3.82-.76s1.48-1.17,1.81-1.99c.33-.82.51-1.73.51-2.73,0-1.48-.23-2.67-.72-3.54s-1.15-1.5-1.99-1.89-1.85-.58-3.04-.58h-3.12c-1.89,0-3.37.43-4.42,1.29s-1.6,2.32-1.6,4.4.49,3.52,1.44,4.42c.95.92,2.3,1.36,4.01,1.36v.02Z"/>
  <path class="cls-1" d="m265.09,42.51V1.5h16.22c2.49,0,4.6.45,6.29,1.36,1.71.92,3.1,2.24,4.15,3.99s1.83,3.89,2.32,6.43c.49,2.55.72,5.45.72,8.72,0,4.3-.51,7.98-1.5,11.02-1.01,3.04-2.51,5.39-4.52,7.01-2.01,1.64-4.5,2.45-7.46,2.45h-16.22v.02Zm4.46-3.95h11.41c2.18,0,3.97-.68,5.36-2.03,1.38-1.36,2.4-3.27,3.06-5.74s1.01-5.39,1.01-8.78c0-3.04-.19-5.61-.56-7.71-.37-2.1-.93-3.8-1.69-5.1s-1.73-2.24-2.92-2.8c-1.19-.58-2.61-.86-4.23-.86h-11.43s0,33.03,0,33.03Z"/>
  <path class="cls-1" d="m306.7,42.84c-2.2,0-3.99-.64-5.41-1.95-1.42-1.3-2.12-3.14-2.12-5.51v-2.12c0-2.34.78-4.23,2.32-5.69,1.54-1.44,3.88-2.18,6.99-2.18h10.09v-3.68c0-1.23-.21-2.28-.64-3.15s-1.19-1.56-2.28-2.03-2.69-.72-4.77-.72h-9.25v-2.61c1.3-.21,2.82-.43,4.54-.6,1.73-.19,3.76-.27,6.1-.27,2.41-.04,4.42.25,6.02.9,1.6.62,2.78,1.62,3.54,2.98.76,1.36,1.15,3.14,1.15,5.32v20.99h-3.41l-.84-3.41c-.16.16-.6.41-1.36.78-.76.37-1.73.8-2.9,1.25s-2.43.86-3.78,1.19c-1.36.33-2.69.51-3.99.51l.02.02Zm1.83-3.29c.66.04,1.42-.04,2.28-.21.86-.19,1.73-.39,2.61-.64.9-.23,1.71-.49,2.47-.76.76-.25,1.38-.49,1.87-.66.49-.19.74-.27.78-.27v-9.37l-9.07.39c-2.12.08-3.62.58-4.54,1.56s-1.36,2.22-1.36,3.74v1.34c0,1.19.25,2.14.76,2.86s1.13,1.23,1.89,1.54c.76.29,1.54.47,2.32.51v-.02Z"/>
  <path class="cls-1" d="m340.67,42.84c-.74,0-1.66,0-2.73-.06s-2.2-.1-3.37-.18-2.22-.16-3.17-.25-1.67-.19-2.2-.31v-2.67h12.21c1.23,0,2.28-.1,3.17-.27.9-.19,1.6-.58,2.08-1.23.51-.62.76-1.58.76-2.84v-1.34c0-1.3-.43-2.32-1.29-3.04-.86-.72-2.24-1.09-4.13-1.09h-4.19c-1.75,0-3.29-.21-4.65-.66s-2.41-1.21-3.15-2.28c-.74-1.07-1.11-2.57-1.11-4.46v-1.56c0-1.85.37-3.39,1.09-4.58.72-1.19,1.85-2.08,3.39-2.67s3.54-.9,6-.9c1.03,0,2.24.04,3.6.12,1.36.08,2.69.18,3.99.31s2.36.27,3.17.41v2.67h-11.47c-1.89,0-3.35.31-4.38.95-1.01.62-1.54,1.85-1.54,3.68v1.23c0,1.15.23,2.01.72,2.59.49.58,1.17.95,2.03,1.15.88.19,1.89.27,3.04.27h4.23c2.71,0,4.81.62,6.29,1.89s2.24,3.08,2.24,5.45v2.06c0,2.01-.45,3.56-1.36,4.65-.92,1.09-2.16,1.85-3.74,2.28-1.58.43-3.43.64-5.55.64l.02.02Z"/>
  <path class="cls-1" d="m357.42,42.51V0h4.4v16.05c1.38-1.01,3.02-1.89,4.93-2.65s3.91-1.15,5.98-1.15,3.8.45,5.16,1.34,2.36,2.1,3,3.62.97,3.21.97,5.06v20.21h-4.4v-19.79c0-1.27-.25-2.38-.76-3.35s-1.23-1.73-2.14-2.28c-.93-.56-2.04-.84-3.35-.84-1.23,0-2.36.12-3.39.37-1.03.23-2.04.58-3.02,1.01s-1.97.93-3,1.54v23.35h-4.4.02Z"/>
  <path class="cls-1" d="m403.64,42.84c-1.42,0-2.73-.18-3.93-.53s-2.32-.78-3.31-1.29c-1.01-.51-1.89-1.01-2.67-1.54l-.84,3.02h-3.56V0h4.4v15.48c1.4-.82,3-1.54,4.79-2.18s3.43-.95,4.97-.95c2.38,0,4.34.51,5.9,1.5,1.56,1.01,2.75,2.63,3.54,4.91.8,2.26,1.21,5.3,1.21,9.07,0,3.08-.35,5.74-1.05,8-.7,2.24-1.83,3.97-3.37,5.18s-3.56,1.81-6.04,1.81l-.04.02Zm-1.4-3.68c1.64,0,3-.41,4.09-1.25s1.93-2.1,2.51-3.82c.56-1.71.86-3.84.86-6.41,0-3.27-.33-5.73-.97-7.38-.64-1.66-1.54-2.78-2.65-3.37s-2.4-.9-3.84-.9c-1.67,0-3.17.23-4.48.7-1.32.47-2.67,1.07-4.03,1.81v18.21c1.15.56,2.41,1.09,3.82,1.62s2.96.78,4.71.78h-.02Z"/>
  <path class="cls-1" d="m432.49,42.84c-2.16,0-4.03-.21-5.65-.66s-2.96-1.23-4.03-2.34-1.87-2.67-2.4-4.65c-.53-1.99-.78-4.52-.78-7.59s.25-5.67.78-7.65c.53-1.99,1.32-3.52,2.4-4.62,1.07-1.09,2.41-1.85,4.03-2.28,1.62-.43,3.51-.64,5.65-.64s4.03.21,5.65.66,2.96,1.21,4.03,2.32c1.07,1.09,1.89,2.63,2.43,4.62s.8,4.52.8,7.61-.27,5.67-.8,7.65c-.55,1.99-1.34,3.52-2.4,4.62-1.05,1.09-2.41,1.87-4.03,2.32s-3.52.66-5.69.66v-.02Zm0-3.62c1.38,0,2.59-.14,3.64-.39s1.95-.78,2.65-1.56,1.25-1.95,1.62-3.51.56-3.62.56-6.19-.19-4.65-.56-6.19c-.37-1.52-.92-2.67-1.62-3.45s-1.6-1.3-2.65-1.56-2.28-.39-3.64-.39-2.63.14-3.68.39c-1.03.25-1.91.78-2.61,1.56-.7.78-1.25,1.93-1.62,3.45s-.56,3.58-.56,6.19.18,4.62.56,6.19c.37,1.56.92,2.73,1.62,3.51.7.78,1.58,1.3,2.61,1.56s2.26.39,3.68.39Z"/>
  <path class="cls-1" d="m457.76,42.84c-2.2,0-3.99-.64-5.41-1.95-1.42-1.3-2.12-3.14-2.12-5.51v-2.12c0-2.34.78-4.23,2.32-5.69,1.54-1.44,3.88-2.18,6.99-2.18h10.09v-3.68c0-1.23-.21-2.28-.64-3.15s-1.19-1.56-2.28-2.03-2.69-.72-4.77-.72h-9.25v-2.61c1.3-.21,2.82-.43,4.54-.6,1.73-.19,3.76-.27,6.1-.27,2.41-.04,4.42.25,6.02.9,1.6.62,2.78,1.62,3.54,2.98.76,1.36,1.15,3.14,1.15,5.32v20.99h-3.41l-.84-3.41c-.16.16-.6.41-1.36.78-.76.37-1.73.8-2.9,1.25s-2.43.86-3.78,1.19c-1.36.33-2.69.51-3.99.51l.02.02Zm1.83-3.29c.66.04,1.42-.04,2.28-.21.86-.19,1.73-.39,2.61-.64.9-.23,1.71-.49,2.47-.76.76-.25,1.38-.49,1.87-.66.49-.19.74-.27.78-.27v-9.37l-9.07.39c-2.12.08-3.62.58-4.54,1.56s-1.36,2.22-1.36,3.74v1.34c0,1.19.25,2.14.76,2.86s1.13,1.23,1.89,1.54c.76.29,1.54.47,2.32.51v-.02Z"/>
  <path class="cls-1" d="m481.48,42.51V12.76h3.35l1.05,5.18c1.34-1.6,2.82-2.92,4.48-3.95,1.66-1.03,3.56-1.56,5.71-1.56.53,0,1.01,0,1.48.06s.9.12,1.3.21v4.52c-.49-.08-.99-.14-1.56-.19-.56-.06-1.11-.08-1.67-.08-1.38,0-2.61.18-3.68.51s-2.1.84-3.06,1.5c-.97.66-1.97,1.48-3,2.45v21.11s-4.4,0-4.4,0Z"/>
  <path class="cls-1" d="m513.21,42.84c-2.45,0-4.46-.53-6.04-1.58-1.58-1.05-2.75-2.69-3.51-4.91-.76-2.2-1.15-5.04-1.15-8.49,0-3.68.37-6.66,1.11-8.94.74-2.28,1.93-3.95,3.56-4.99,1.64-1.03,3.82-1.56,6.58-1.56,1.67,0,3.31.19,4.91.56s3,.78,4.23,1.23V.02h4.4v42.51h-3.56l-.84-3.02c-.56.49-1.38.99-2.47,1.5s-2.28.95-3.56,1.3-2.49.53-3.64.53h-.02Zm1.29-3.62c1.71,0,3.25-.27,4.65-.8,1.4-.55,2.65-1.11,3.76-1.69v-19.43c-1.34-.41-2.63-.76-3.84-1.03-1.23-.27-2.61-.41-4.13-.41-1.89,0-3.43.35-4.62,1.05s-2.04,1.93-2.59,3.64c-.55,1.73-.8,4.11-.8,7.17,0,2.75.25,4.99.76,6.68.51,1.71,1.3,2.94,2.41,3.7,1.11.76,2.59,1.15,4.4,1.15l-.02-.02Z"/>
</svg>