<svg xmlns="http://www.w3.org/2000/svg" viewBox="0 0 24 24">
  <rect fill="#0f111a" x="0" y="0" width="24" height="24"/>
  <path fill="#ffa726" class="cls-3" d="M3.89,17.16V6.84h4.13c.35,0,.7.04,1.03.13.33.08.63.24.89.46s.47.54.62.94c.15.41.22.94.22,1.59,0,.53-.06.98-.17,1.33-.11.35-.26.64-.44.85-.18.21-.38.37-.6.48-.22.11-.44.19-.65.25l2.06,4.3h-1.43l-1.9-4.1c-.14,0-.31,0-.51,0-.2,0-.41,0-.63,0s-.43,0-.64-.01c-.21,0-.39-.01-.55-.01v4.14h-1.41ZM5.3,11.92h2.49c.22,0,.43-.03.62-.08s.35-.15.5-.29c.14-.14.26-.35.34-.6s.13-.59.13-.99-.04-.71-.13-.95-.2-.43-.35-.56c-.15-.13-.32-.22-.5-.27-.19-.05-.39-.08-.6-.08h-2.49v3.82Z"/>
  <path fill="#38bdf8" class="cls-2" d="M12.48,17.16V6.84h4.17c.64,0,1.19.12,1.62.35.44.23.79.57,1.06,1.01.27.44.47.98.59,1.62.12.64.18,1.37.18,2.18,0,1.1-.13,2.03-.38,2.8-.26.77-.64,1.35-1.16,1.75s-1.15.6-1.92.6h-4.17ZM13.9,15.9h2.63c.51,0,.93-.16,1.25-.47.32-.31.55-.76.7-1.34.15-.58.22-1.28.22-2.08,0-.74-.04-1.36-.13-1.85-.08-.5-.21-.9-.39-1.2-.18-.3-.4-.52-.68-.65s-.6-.2-.97-.2h-2.63v7.8Z"/>
</svg>
