<svg xmlns="http://www.w3.org/2000/svg" viewBox="0 0 24 24">
  <rect fill="#0f111a" width="24" height="24" />
  <path fill="#cad7f9" d="M5.83,18.04V6.2h4.9c.47,0,.91.06,1.31.17.41.11.76.31,1.07.58.31.28.55.66.73,1.15.18.49.26,1.12.26,1.89,0,.54-.05,1.01-.16,1.39-.11.38-.25.7-.42.94-.18.25-.38.44-.6.59-.22.15-.45.27-.69.37l2.21,4.75h-2.42l-1.9-4.38c-.13,0-.27,0-.44,0-.17,0-.33,0-.5,0h-.51c-.17,0-.33,0-.46-.02v4.42h-2.37ZM8.2,11.75h2.11c.21,0,.41-.03.58-.08.17-.05.32-.15.45-.28s.23-.31.3-.54c.07-.22.1-.51.1-.86,0-.33-.04-.61-.1-.82-.07-.22-.17-.39-.3-.51s-.28-.21-.45-.26c-.17-.05-.36-.07-.58-.07h-2.11v3.42Z"/>
  <path fill="#cad7f9" d="M16.04,8.18c-.22,0-.34-.11-.34-.32v-1.57c0-.22.11-.34.34-.34h1.82c.1,0,.17.03.22.1.05.06.08.14.08.24v1.57c0,.21-.1.32-.3.32h-1.82ZM15.75,18.04v-8.59h2.37v8.59h-2.37Z"/>
</svg>
