<svg width="237" height="174" viewBox="0 0 237 174" fill="none" xmlns="http://www.w3.org/2000/svg">
<path d="M42.1978 171L42.19 170.961C20.3862 170.014 3 152.037 3 130C3 110.192 17.0465 93.6649 35.722 89.8361C40.6527 55.4388 70.2388 29 106 29C125.298 29 142.798 36.6992 155.595 49.1935C160.821 47.7635 166.321 47 172 47C206.242 47 234 74.7583 234 109C234 143.075 206.512 170.729 172.5 170.998L172.5 171H42.1978Z" stroke="#293041" stroke-width="6"/>
<path d="M11 80.1161C17.2541 36.514 54.781 3 100.14 3C124.618 3 146.815 12.7595 163.047 28.5973" stroke="#293041" stroke-width="5" stroke-linecap="round"/>
<path d="M149.571 145.354L149.925 145.707L150.278 145.354L152.354 143.278L152.707 142.925L152.354 142.571L126.739 116.957C128.304 115.107 129.579 112.889 130.57 110.312C131.63 107.557 132.16 104.729 132.16 101.83C132.16 95.3197 129.896 89.7911 125.372 85.2752L125.372 85.2752C120.849 80.7602 115.319 78.5 108.814 78.5C102.307 78.5 96.7827 80.7646 92.2709 85.2884C87.7588 89.8118 85.5 95.3414 85.5 101.847C85.5 108.353 87.7603 113.877 92.2756 118.389C96.7917 122.902 102.32 125.16 108.83 125.16C111.522 125.16 114.242 124.664 116.99 123.678C119.591 122.744 121.914 121.43 123.953 119.736L149.571 145.354ZM122.642 115.642C118.899 119.384 114.306 121.255 108.83 121.255C103.354 121.255 98.7612 119.384 95.0186 115.642C91.2761 111.899 89.4057 107.306 89.4057 101.83C89.4057 96.3543 91.2761 91.7612 95.0186 88.0186C98.7612 84.2761 103.354 82.4057 108.83 82.4057C114.306 82.4057 118.899 84.2761 122.642 88.0186C126.384 91.7612 128.255 96.3543 128.255 101.83C128.255 107.306 126.384 111.899 122.642 115.642Z" fill="#293041" stroke="#293041"/>
</svg>
